<svg viewBox="0 0 24 24" height="24" width="24" xmlns="http://www.w3.org/2000/svg"><path d="M6.571,9H2.25a.75.75,0,0,0-.75.75v4.5a.75.75,0,0,0,.75.75H6.571a8.254,8.254,0,0,0,6.854,5.209.751.751,0,0,0,.825-.746V4.537a.75.75,0,0,0-.825-.746A8.254,8.254,0,0,0,6.571,9Z" fill="none" stroke="#000000" stroke-linecap="round" stroke-linejoin="round" stroke-width="1.5"   /><path d="M21.463,15.55a6.595,6.595,0,0,0,0-7.1" fill="none" stroke="#000000" stroke-linecap="round" stroke-linejoin="round" stroke-width="1.5"   /><path d="M18.562,14.241a3.491,3.491,0,0,0,0-4.4" fill="none" stroke="#000000" stroke-linecap="round" stroke-linejoin="round" stroke-width="1.5"   /></svg>